# xmcd
#
# Track frame offsets: 
#        150
#        14212
#        29820
#        47267
#        62562
#        79460
#        93750
#
# Disc length: 1514 seconds
#
# Revision: 0
# Processed by: cddbd v1.5PL3 Copyright (c) Steve Scherf et al.
# Submitted via: ExactAudioCopy v0.90b4
#
DISCID=5605e807
DTITLE=DAITA - DIRECT CHORD
DYEAR=2003
DGENRE=Rock
TTITLE0=Singular Point
TTITLE1=Jet Black Soul
TTITLE2=The Core
TTITLE3=Hybrid Gear
TTITLE4=Groove Rider
TTITLE5=Handroid
TTITLE6=Metamorphosis
EXTD=
EXTT0=
EXTT1=
EXTT2=
EXTT3=
EXTT4=
EXTT5=
EXTT6=
PLAYORDER=
